<svg width="12" height="12" viewBox="0 0 12 12" fill="none" xmlns="http://www.w3.org/2000/svg">
    <path fill-rule="evenodd" clip-rule="evenodd" d="M3.74409 0.438302C0.675184 1.68435 -0.804016 5.18055 0.441806 8.25044C0.743448 8.99593 1.19271 9.67272 1.76144 10.242C4.10503 12.586 7.90223 12.586 10.2433 10.242C12.5843 7.89796 12.5869 4.10007 10.2433 1.7586C8.53965 0.0546727 5.97974 -0.465937 3.74409 0.438729V0.438302ZM1.50241 8.52593C1.21229 8.34671 0.947768 8.13334 0.711831 7.88882C0.353445 6.8762 0.290727 5.78377 0.529651 4.73658C0.64058 4.51468 0.771562 4.30131 0.913636 4.09947C0.933206 4.07258 0.951677 4.04522 0.970194 4.01779L0.970206 4.01778L0.970211 4.01777C0.994885 3.98122 1.01964 3.94455 1.04718 3.90872L2.40094 4.71097V4.74511C2.39795 5.47055 2.47219 6.19599 2.61981 6.90735C2.61981 6.91034 2.61981 6.9129 2.6228 6.91588L1.57025 8.56306C1.55894 8.5573 1.54753 8.5509 1.53612 8.54449C1.52471 8.53809 1.51329 8.53169 1.50199 8.52593H1.50241ZM6.24731 11.6101C5.99985 11.5274 5.76093 11.4279 5.52755 11.3084H5.52798C5.51091 11.2999 5.49086 11.2888 5.47379 11.2773L3.20401 10.8732C4.12813 11.4023 5.18367 11.6584 6.24731 11.6101ZM5.51917 10.8988L2.8428 10.4208C2.53007 10.0423 2.24848 9.63564 2.00657 9.20891C1.98855 9.17704 1.97008 9.14562 1.95168 9.11434L1.95167 9.11432L1.95165 9.11428C1.90602 9.03669 1.86087 8.95993 1.82439 8.87905L2.87395 7.23486L2.8887 7.23846C2.90764 7.24305 2.92883 7.24819 2.95373 7.25492C3.61077 7.42561 4.27635 7.55918 4.95045 7.65306C4.9651 7.65511 4.97864 7.65721 4.99132 7.65918L4.99132 7.65918C5.01298 7.66255 5.0321 7.66552 5.04986 7.66714L6.30719 9.84047C6.08832 10.1477 5.86903 10.452 5.64461 10.7567C5.61752 10.7857 5.59163 10.8157 5.56542 10.8461C5.55035 10.8636 5.53518 10.8812 5.5196 10.8988H5.51917ZM9.29635 10.5514C9.53826 10.3782 9.76311 10.1844 9.97345 9.97404C10.9262 9.02372 11.5009 7.76358 11.6003 6.4292C11.5691 6.46888 11.532 6.50302 11.4923 6.53161C11.1625 6.76205 10.8071 6.9609 10.4372 7.12605L9.09454 9.62967C9.18841 9.92838 9.25667 10.2386 9.29635 10.5514ZM9.91334 6.72839C9.96454 6.82525 10.0127 6.91913 10.0614 7.01557L8.76735 9.43385C8.75881 9.43684 8.75327 9.43684 8.74473 9.43684C8.04801 9.56784 7.33678 9.63612 6.62853 9.63868L5.33449 7.40262C5.5363 7.03008 5.73555 6.65456 5.93181 6.27904L5.97641 6.19355C6.09513 5.96601 6.21385 5.73847 6.32988 5.51093L9.00627 5.23483C9.33906 5.71576 9.64071 6.21332 9.91376 6.72839H9.91334ZM8.97504 4.85913C9.11157 4.52927 9.24511 4.19642 9.3731 3.86059V3.86101C9.43282 3.69765 9.48466 3.5346 9.53704 3.36979L9.56638 3.27767L7.77146 1.25199C7.52998 1.23748 7.28508 1.24047 7.04061 1.25754C6.72689 1.27548 6.41344 1.30792 6.09983 1.34037L6.09982 1.34037L6.09982 1.34037C6.01807 1.34883 5.9363 1.35729 5.85452 1.3655C5.80333 1.37147 5.75213 1.38001 5.70392 1.39409L4.97861 3.57895L5.35406 3.95447L5.34553 3.963L5.46169 4.09324C5.73277 4.39713 6.00385 4.70103 6.27264 5.00721C6.29941 5.03632 6.3246 5.06885 6.34924 5.10067L6.36949 5.12669L8.97504 4.85913ZM9.976 2.0258C10.4568 2.50672 10.8464 3.07 11.125 3.69004C10.7892 3.45961 10.4308 3.2663 10.0528 3.11524L10.0329 3.10768C9.97979 3.08754 9.9267 3.06739 9.8736 3.04995L8.10726 1.0584C8.11878 0.973056 8.12731 0.884723 8.12987 0.799377C8.82105 1.08102 9.44695 1.49623 9.976 2.02537V2.0258ZM4.21339 0.701547C4.21076 0.699647 4.20765 0.697403 4.20467 0.69442L4.20424 0.695273C4.20723 0.686738 4.21022 0.680764 4.21576 0.675217C3.3936 0.950884 2.64568 1.41474 2.03131 2.02923C2.01424 2.04708 1.99697 2.06493 1.97965 2.08284C1.93071 2.13341 1.88137 2.18441 1.83505 2.23705C1.7382 2.40774 1.65031 2.58398 1.57052 2.7632C1.49129 2.9489 1.41911 3.14029 1.34706 3.33132C1.32871 3.37997 1.31037 3.42861 1.29192 3.47712C1.27784 3.51723 1.27229 3.55692 1.26931 3.59959L2.60601 4.39032C3.12055 4.05193 3.66965 3.7673 4.23283 3.51126C4.32552 3.46772 4.42233 3.42972 4.51954 3.39158C4.56238 3.37477 4.60529 3.35793 4.64796 3.34057C4.65146 3.34057 4.65379 3.33954 4.65571 3.33869C4.65708 3.33809 4.65824 3.33758 4.65948 3.33758L5.33657 1.29483C4.98971 1.05031 4.62279 0.845482 4.21875 0.705941C4.21757 0.704561 4.21565 0.70318 4.21339 0.701547Z" fill="#6E7B89"/>
</svg>
